<svg width="36" height="36" viewBox="0 0 36 36" fill="none" xmlns="http://www.w3.org/2000/svg">
<path d="M0.218264 9.57655C-0.0727541 9.28525 -0.072755 8.81297 0.218263 8.52168L8.51358 0.218472C8.8046 -0.0728233 9.27643 -0.0728242 9.56745 0.218471L17.8628 8.52168C18.1538 8.81297 18.1538 9.28525 17.8628 9.57655L9.56745 17.8798C9.27643 18.171 8.8046 18.171 8.51358 17.8798L0.218264 9.57655Z" fill="#E2454C"/>
<path d="M18.1372 9.57655C17.8462 9.28525 17.8462 8.81297 18.1372 8.52168L26.4325 0.218472C26.7236 -0.0728233 27.1954 -0.0728242 27.4864 0.218471L35.7817 8.52168C36.0728 8.81297 36.0728 9.28525 35.7817 9.57655L27.4864 17.8798C27.1954 18.171 26.7236 18.171 26.4326 17.8798L18.1372 9.57655Z" fill="#E2454C"/>
<path d="M0.218264 27.4783C-0.0727541 27.187 -0.072755 26.7147 0.218263 26.4235L8.51358 18.1202C8.8046 17.829 9.27643 17.829 9.56745 18.1202L17.8628 26.4235C18.1538 26.7147 18.1538 27.187 17.8628 27.4783L9.56745 35.7815C9.27643 36.0728 8.8046 36.0728 8.51358 35.7815L0.218264 27.4783Z" fill="#E2454C"/>
<path d="M18.1372 27.4783C17.8462 27.187 17.8462 26.7147 18.1372 26.4235L26.4325 18.1202C26.7236 17.829 27.1954 17.829 27.4864 18.1202L35.7817 26.4235C36.0728 26.7147 36.0728 27.187 35.7817 27.4783L27.4864 35.7815C27.1954 36.0728 26.7236 36.0728 26.4326 35.7815L18.1372 27.4783Z" fill="#E2454C"/>
</svg>
