<svg width="107" height="107" viewBox="0 0 107 107" fill="none" xmlns="http://www.w3.org/2000/svg">
<path d="M4.2612 38.5461C3.3972 37.9062 3.21485 36.6865 3.8539 35.8219L22.0699 11.1768C22.7089 10.3122 23.9274 10.13 24.7914 10.7699L49.4192 29.0093C50.2832 29.6492 50.4655 30.8688 49.8265 31.7334L31.6105 56.3785C30.9715 57.2431 29.753 57.4253 28.889 56.7854L4.2612 38.5461Z" fill="#F3F3F3"/>
<path d="M50.5353 31.6275C49.6713 30.9876 49.4889 29.7679 50.128 28.9033L68.3439 4.25823C68.983 3.39362 70.2015 3.21144 71.0655 3.85132L95.6932 22.0907C96.5572 22.7306 96.7396 23.9502 96.1005 24.8148L77.8846 49.4599C77.2455 50.3245 76.0271 50.5067 75.1631 49.8668L50.5353 31.6275Z" fill="#F3F3F3"/>
<path d="M11.1732 84.7757C10.3092 84.1358 10.1268 82.9162 10.7659 82.0516L28.9818 57.4065C29.6209 56.5419 30.8394 56.3597 31.7034 56.9996L56.3311 75.239C57.1951 75.8789 57.3775 77.0985 56.7384 77.9631L38.5225 102.608C37.8834 103.473 36.6649 103.655 35.8009 103.015L11.1732 84.7757Z" fill="#F3F3F3"/>
<path d="M57.4472 77.8571C56.5832 77.2172 56.4009 75.9976 57.0399 75.133L75.2559 50.4879C75.895 49.6233 77.1134 49.4411 77.9774 50.081L102.605 68.3204C103.469 68.9603 103.652 70.1799 103.013 71.0445L84.7965 95.6896C84.1575 96.5542 82.939 96.7364 82.075 96.0965L57.4472 77.8571Z" fill="#F3F3F3"/>
</svg>
