<svg width="17" height="17" viewBox="0 0 17 17" fill="none" xmlns="http://www.w3.org/2000/svg">
<path d="M0.103069 4.52226C-0.0343561 4.3847 -0.0343565 4.16168 0.103069 4.02412L4.0203 0.103167C4.15773 -0.0343888 4.38054 -0.0343892 4.51796 0.103167L8.43519 4.02412C8.57262 4.16168 8.57262 4.3847 8.43519 4.52226L4.51796 8.44322C4.38054 8.58077 4.15773 8.58077 4.0203 8.44322L0.103069 4.52226Z" fill="#E2454C"/>
<path d="M8.56481 4.52226C8.42738 4.3847 8.42738 4.16168 8.56481 4.02412L12.482 0.103167C12.6195 -0.0343888 12.8423 -0.0343892 12.9797 0.103167L16.8969 4.02412C17.0344 4.16168 17.0344 4.3847 16.8969 4.52226L12.9797 8.44322C12.8423 8.58077 12.6195 8.58077 12.482 8.44322L8.56481 4.52226Z" fill="#E2454C"/>
<path d="M0.103069 12.9759C-0.0343561 12.8383 -0.0343565 12.6153 0.103069 12.4777L4.0203 8.55678C4.15773 8.41923 4.38054 8.41923 4.51796 8.55678L8.43519 12.4777C8.57262 12.6153 8.57262 12.8383 8.43519 12.9759L4.51796 16.8968C4.38054 17.0344 4.15773 17.0344 4.0203 16.8968L0.103069 12.9759Z" fill="#E2454C"/>
<path d="M8.56481 12.9759C8.42738 12.8383 8.42738 12.6153 8.56481 12.4777L12.482 8.55678C12.6195 8.41923 12.8423 8.41923 12.9797 8.55678L16.8969 12.4777C17.0344 12.6153 17.0344 12.8383 16.8969 12.9759L12.9797 16.8968C12.8423 17.0344 12.6195 17.0344 12.482 16.8968L8.56481 12.9759Z" fill="#E2454C"/>
</svg>
