<svg width="28" height="28" viewBox="0 0 28 28" fill="none" xmlns="http://www.w3.org/2000/svg">
<path d="M0.169761 7.44843C-0.0565865 7.22186 -0.0565872 6.85453 0.16976 6.62797L6.62167 0.169922C6.84802 -0.0566403 7.215 -0.056641 7.44135 0.169922L13.8933 6.62797C14.1196 6.85453 14.1196 7.22186 13.8933 7.44843L7.44135 13.9065C7.215 14.133 6.84802 14.133 6.62167 13.9065L0.169761 7.44843Z" fill="#E2454C"/>
<path d="M14.1067 7.44843C13.8804 7.22186 13.8804 6.85453 14.1067 6.62797L20.5586 0.169922C20.785 -0.0566403 21.152 -0.056641 21.3783 0.169922L27.8302 6.62797C28.0566 6.85453 28.0566 7.22186 27.8302 7.44843L21.3783 13.9065C21.152 14.133 20.785 14.133 20.5587 13.9065L14.1067 7.44843Z" fill="#E2454C"/>
<path d="M0.169761 21.372C-0.0565865 21.1455 -0.0565872 20.7781 0.16976 20.5516L6.62167 14.0935C6.84802 13.867 7.215 13.867 7.44135 14.0935L13.8933 20.5516C14.1196 20.7781 14.1196 21.1455 13.8933 21.372L7.44135 27.8301C7.215 28.0566 6.84802 28.0566 6.62167 27.8301L0.169761 21.372Z" fill="#E2454C"/>
<path d="M14.1067 21.372C13.8804 21.1455 13.8804 20.7781 14.1067 20.5516L20.5586 14.0935C20.785 13.867 21.152 13.867 21.3783 14.0935L27.8302 20.5516C28.0566 20.7781 28.0566 21.1455 27.8302 21.372L21.3783 27.8301C21.152 28.0566 20.785 28.0566 20.5587 27.8301L14.1067 21.372Z" fill="#E2454C"/>
</svg>
