<svg width="198" height="198" viewBox="0 0 198 198" fill="none" xmlns="http://www.w3.org/2000/svg">
<path d="M81.4038 90.7777C81.1128 90.4864 81.1128 90.0141 81.4038 89.7228L89.6991 81.4196C89.9901 81.1283 90.462 81.1283 90.753 81.4196L99.0483 89.7228C99.3393 90.0141 99.3393 90.4864 99.0483 90.7777L90.753 99.0809C90.462 99.3722 89.9901 99.3722 89.6991 99.0809L81.4038 90.7777Z" fill="#E2454C"/>
<path d="M99.3228 90.7777C99.0318 90.4864 99.0318 90.0141 99.3228 89.7228L107.618 81.4196C107.909 81.1283 108.381 81.1283 108.672 81.4196L116.967 89.7228C117.258 90.0141 117.258 90.4864 116.967 90.7777L108.672 99.0809C108.381 99.3722 107.909 99.3722 107.618 99.0809L99.3228 90.7777Z" fill="#E2454C"/>
<path d="M81.4038 108.679C81.1128 108.388 81.1128 107.916 81.4038 107.625L89.6991 99.3214C89.9901 99.0301 90.462 99.0301 90.753 99.3214L99.0483 107.625C99.3393 107.916 99.3393 108.388 99.0483 108.679L90.753 116.983C90.462 117.274 89.9901 117.274 89.6991 116.983L81.4038 108.679Z" fill="#E2454C"/>
<path d="M99.3228 108.679C99.0318 108.388 99.0318 107.916 99.3228 107.625L107.618 99.3214C107.909 99.0301 108.381 99.0301 108.672 99.3214L116.967 107.625C117.258 107.916 117.258 108.388 116.967 108.679L108.672 116.983C108.381 117.274 107.909 117.274 107.618 116.983L99.3228 108.679Z" fill="#E2454C"/>
<path d="M170.801 106.432L183.005 111.829L183.252 108.779L174.121 104.914L183.756 102.572L184.004 99.5218L171.09 102.88L170.801 106.432Z" fill="#C2C2C2"/>
<path d="M182.398 114.165L170.049 111.663L169.477 114.485L181.826 116.988L182.398 114.165Z" fill="#C2C2C2"/>
<path d="M180.149 123.487L181.053 120.772L169.098 116.792L168.194 119.507L171.131 120.485L172.578 122.636L166.755 123.828L165.732 126.902L174.195 124.958L177.863 130.353L178.864 127.347L174.752 121.69L180.149 123.487Z" fill="#C2C2C2"/>
<path d="M163.802 130.655L162.485 133.196L171.578 137.909L169.905 141.138L171.998 142.223L176.662 133.226L174.568 132.14L172.895 135.368L163.802 130.655Z" fill="#C2C2C2"/>
<path d="M158.712 150.074C161.694 152.277 165.279 152.15 167.493 149.153C169.707 146.155 168.774 142.692 165.792 140.489C162.809 138.286 159.224 138.413 157.011 141.41C154.797 144.407 155.729 147.87 158.712 150.074ZM164.07 142.82C166.111 144.328 166.68 146.224 165.567 147.73C164.455 149.236 162.475 149.25 160.434 147.742C158.392 146.235 157.824 144.338 158.936 142.832C160.048 141.326 162.028 141.312 164.07 142.82Z" fill="#C2C2C2"/>
<path d="M151.53 160.515C153.347 162.413 155.622 162.004 157.884 159.838L161.2 156.664L152.487 147.563L150.419 149.542L153.743 153.013L152.482 154.221L147.182 152.641L144.945 154.782L150.87 156.312C150.176 157.773 150.322 159.253 151.53 160.515ZM153.597 158.536C152.8 157.703 152.972 156.816 154.013 155.82L155.274 154.613L157.602 157.044L156.34 158.252C155.3 159.247 154.394 159.368 153.597 158.536Z" fill="#C2C2C2"/>
<path d="M150.889 165.929L143.329 155.849L141.025 157.577L148.585 167.657L150.889 165.929Z" fill="#C2C2C2"/>
<path d="M145.593 169.732L138.829 159.102L136.399 160.648L143.163 171.279L145.593 169.732Z" fill="#C2C2C2"/>
<path d="M133.62 176.343L136.837 174.809L135.379 161.546L132.617 162.862L133.001 165.551L128.858 167.526L126.995 165.542L124.233 166.859L133.62 176.343ZM134.066 173.139L130.468 169.271L133.327 167.908L134.066 173.139Z" fill="#C2C2C2"/>
<path d="M115.318 171.428C116.53 171.154 117.697 171.498 118.642 172.17L120.31 170.242C118.723 169.106 116.775 168.736 114.669 169.213C111.877 169.845 110.439 171.722 110.94 173.934C111.409 176.005 112.896 176.702 115.747 176.905C117.774 177.054 118.408 177.409 118.575 178.146C118.727 178.813 118.303 179.389 117.197 179.64C116.285 179.847 115.329 179.62 114.573 179.053L113.009 180.866C114.392 181.918 116.179 182.233 117.97 181.827C120.656 181.219 121.839 179.437 121.378 177.401C120.976 175.628 119.576 174.579 116.828 174.427C114.381 174.298 113.909 173.925 113.722 173.1C113.551 172.345 114.125 171.699 115.318 171.428Z" fill="#C2C2C2"/>
<path d="M109.295 183.156L107.937 170.629L105.074 170.939L106.432 183.466L109.295 183.156Z" fill="#C2C2C2"/>
<path d="M94.9937 173.404L91.8311 178.896L92.1049 171.016L89.3345 170.92L88.897 183.513L91.7572 183.612L95.7676 176.529L99.2767 183.873L102.137 183.973L102.575 171.38L99.8042 171.284L99.5304 179.163L96.7566 173.465L94.9937 173.404Z" fill="#C2C2C2"/>
<path d="M78.1771 181.335L81.656 182.11L88.6806 170.765L85.6937 170.1L84.3399 172.454L79.8595 171.457L79.6144 168.747L76.6275 168.082L78.1771 181.335ZM80.5031 179.087L80.052 173.823L83.1443 174.511L80.5031 179.087Z" fill="#C2C2C2"/>
<path d="M68.634 178.367L71.2863 179.442L76.0206 167.766L73.3684 166.69L72.2051 169.559L69.9661 170.866L69.1481 164.979L66.1455 163.762L67.5459 172.332L61.9283 175.648L64.8641 176.838L70.7713 173.096L68.634 178.367Z" fill="#C2C2C2"/>
<path d="M52.0353 162.476C50.0678 165.619 50.4697 169.183 53.6279 171.16C56.7862 173.137 60.168 171.942 62.1355 168.799C64.103 165.656 63.7011 162.091 60.5428 160.114C57.3846 158.137 54.0028 159.333 52.0353 162.476ZM59.6791 167.261C58.3324 169.412 56.485 170.125 54.8982 169.131C53.3115 168.138 53.145 166.165 54.4917 164.014C55.8384 161.862 57.6858 161.15 59.2726 162.143C60.8593 163.137 61.0258 165.11 59.6791 167.261Z" fill="#C2C2C2"/>
<path d="M48.9131 151.449L37.232 157.899L39.5105 159.942L48.1132 155.011L44.1477 164.099L46.4261 166.142L51.5668 153.828L48.9131 151.449Z" fill="#C2C2C2"/>
<path d="M31.0885 150.439L33.3192 153.219L45.8949 148.757L43.9796 146.371L41.4511 147.362L38.5781 143.782L40.0814 141.514L38.1661 139.127L31.0885 150.439ZM34.3096 150.139L37.2488 145.749L39.2317 148.22L34.3096 150.139Z" fill="#C2C2C2"/>
<path d="M25.7693 130.788L24.5761 132.58L26.8826 133.795L24.4547 134.737L25.4193 136.65L27.6202 135.258L27.2185 137.819L29.3763 137.94L29.2627 135.357L31.2888 136.976L32.4739 135.168L30.1756 133.969L32.5873 133.035L31.6227 131.122L29.438 132.506L29.8315 129.929L27.6819 129.824L27.7794 132.416L25.7693 130.788Z" fill="#C2C2C2"/>
<path d="M17.8002 125.262L29.8422 121.554L28.9946 118.802L16.9526 122.51L17.8002 125.262Z" fill="#C2C2C2"/>
<path d="M25.4177 112.748C25.6457 113.968 25.2568 115.121 24.5496 116.041L26.4126 117.78C27.6079 116.239 28.0527 114.306 27.6561 112.183C27.1306 109.37 25.3105 107.86 23.0811 108.277C20.9932 108.667 20.2403 110.126 19.9287 112.967C19.7017 114.987 19.3231 115.607 18.58 115.746C17.9076 115.872 17.3484 115.427 17.1402 114.312C16.9683 113.392 17.2311 112.446 17.8264 111.712L16.075 110.08C14.9705 111.421 14.5878 113.196 14.9249 115C15.4306 117.708 17.1657 118.958 19.2182 118.575C21.0053 118.241 22.1064 116.882 22.3638 114.142C22.5855 111.702 22.9762 111.244 23.8078 111.089C24.5686 110.947 25.1929 111.544 25.4177 112.748Z" fill="#C2C2C2"/>
<path d="M13.7393 93.2568L13.5881 96.8176L25.9903 101.74L26.1202 98.6831L23.5649 97.7638L23.7597 93.1779L26.3845 92.4607L26.5144 89.4034L13.7393 93.2568ZM16.3613 95.1517L21.4639 93.7831L21.3295 96.9482L16.3613 95.1517Z" fill="#C2C2C2"/>
<path d="M27.4877 84.3034L29.6385 76.1214L27.358 75.5219L25.9348 80.936L16.0293 78.3322L15.3017 81.1002L27.4877 84.3034Z" fill="#C2C2C2"/>
<path d="M18.6118 69.7769L30.3752 74.2918L31.4071 71.603L19.6438 67.0882L18.6118 69.7769Z" fill="#C2C2C2"/>
<path d="M32.1899 69.4447L33.4975 66.8989L29.0624 64.6208L31.3159 60.2337L29.2825 59.1892L27.029 63.5763L24.3231 62.1864L26.8644 57.2389L24.831 56.1944L20.982 63.6877L32.1899 69.4447Z" fill="#C2C2C2"/>
<path d="M37.1273 60.1559L42.1016 53.1577L40.2383 51.8333L36.9221 56.4988L34.4427 54.7364L37.3 50.7164L35.4368 49.392L32.5794 53.412L30.3787 51.8478L33.601 47.3143L31.7378 45.9899L26.8573 52.8561L37.1273 60.1559Z" fill="#C2C2C2"/>
<path d="M43.0336 52.0405L48.8394 45.8871L47.1242 44.2689L43.2826 48.3406L35.833 41.312L33.8689 43.3937L43.0336 52.0405Z" fill="#C2C2C2"/>
<path d="M54.8457 32.9862C52.5779 30.0525 49.0946 29.1961 46.1467 31.4749C43.1988 33.7537 43.1503 37.3404 45.4182 40.274C47.686 43.2077 51.1693 44.0642 54.1171 41.7853C57.065 39.5065 57.1135 35.9198 54.8457 32.9862ZM47.711 38.5016C46.1587 36.4936 46.1298 34.5139 47.6109 33.3689C49.092 32.224 51.0006 32.7506 52.5529 34.7586C54.1051 36.7666 54.134 38.7464 52.653 39.8913C51.1719 41.0362 49.2632 40.5096 47.711 38.5016Z" fill="#C2C2C2"/>
<path d="M60.24 36.9497L62.701 35.674L58.99 28.5147L67.1117 33.3878L69.5887 32.1038L63.7902 20.9173L61.3292 22.193L65.0402 29.3524L56.9185 24.4793L54.4415 25.7632L60.24 36.9497Z" fill="#C2C2C2"/>
<path d="M69.3683 25.2553C70.5337 29.0399 73.7975 30.7093 77.3241 29.6234C79.4744 28.9612 80.9405 27.6058 81.6005 25.8958L80.1702 21.251L75.1298 22.8031L75.7389 24.7815L78.1646 24.0346L78.6731 25.686C78.4112 26.4259 77.6345 27.0229 76.654 27.3248C74.8304 27.8863 72.9325 26.9829 72.1379 24.4024C71.3433 21.822 72.3699 20.018 74.0386 19.5042C75.3288 19.1069 76.3982 19.3991 77.3181 20.2459L79.2618 18.4232C77.6615 16.9572 75.5704 16.5275 73.2308 17.248C69.8419 18.2915 68.2082 21.4878 69.3683 25.2553Z" fill="#C2C2C2"/>
<path d="M88.5742 26.7618L97.1347 26.1001L96.9585 23.8209L91.2515 24.262L91.0171 21.2291L95.9344 20.8489L95.7582 18.5697L90.8409 18.9498L90.6328 16.2579L96.1783 15.8292L96.0021 13.55L87.6031 14.1993L88.5742 26.7618Z" fill="#C2C2C2"/>
<path d="M103.16 16.0457L104.793 16.1782C106.802 16.3413 108.025 17.7408 107.811 20.3782C107.597 23.0155 106.164 24.1995 104.155 24.0364L102.522 23.9038L103.16 16.0457ZM110.699 20.6126C111.001 16.8989 108.859 14.1425 105.091 13.8367L100.498 13.4638L99.4787 26.0225L104.072 26.3954C107.839 26.7012 110.396 24.3444 110.699 20.6126Z" fill="#C2C2C2"/>
<path d="M116.579 28.6462C119.75 29.467 122.262 28.2392 123.137 24.8586L125.018 17.592L122.247 16.8749L120.348 24.2112C119.884 26.0061 118.834 26.757 117.178 26.3286C115.523 25.9001 114.969 24.7343 115.434 22.9394L117.333 15.6031L114.562 14.886L112.681 22.1526C111.806 25.5332 113.477 27.8434 116.579 28.6462Z" fill="#C2C2C2"/>
<path d="M125.956 24.5189C124.326 28.1082 125.507 31.4715 128.851 32.9897C131.014 33.9721 133.214 33.785 134.924 32.545L133.244 30.4973C132.184 31.2217 131.07 31.3681 129.939 30.8546C128.234 30.0806 127.478 28.1756 128.595 25.7171C129.711 23.2587 131.643 22.5742 133.347 23.3482C134.478 23.8617 135.101 24.797 135.254 26.0721L137.901 25.9892C137.709 23.8858 136.402 22.1061 134.239 21.1238C130.895 19.6056 127.586 20.9297 125.956 24.5189Z" fill="#C2C2C2"/>
<path d="M147.604 29.0354L144.647 27.0457L133.969 35.0472L136.508 36.7556L138.627 35.0574L142.435 37.6199L141.675 40.2326L144.213 41.941L147.604 29.0354ZM144.618 30.2806L143.119 35.3464L140.49 33.5777L144.618 30.2806Z" fill="#C2C2C2"/>
<path d="M146.389 44.0767L148.499 46.0103L155.419 38.4593L158.099 40.9158L159.693 39.1773L152.221 32.3307L150.628 34.0692L153.309 36.5257L146.389 44.0767Z" fill="#C2C2C2"/>
<path d="M164.001 54.2509C166.909 51.9511 167.728 48.4587 165.417 45.5359C163.106 42.6132 159.519 42.6039 156.61 44.9036C153.702 47.2034 152.883 50.6958 155.194 53.6186C157.505 56.5414 161.092 56.5507 164.001 54.2509ZM158.408 47.1769C160.398 45.6028 162.378 45.5523 163.539 47.0207C164.7 48.4892 164.194 50.4035 162.203 51.9776C160.212 53.5517 158.233 53.6023 157.072 52.1338C155.911 50.6654 156.417 48.751 158.408 47.1769Z" fill="#C2C2C2"/>
<path d="M172.236 63.9768C174.547 62.7245 174.752 60.4222 173.26 57.6687L171.073 53.6334L159.995 59.6377L161.359 62.1539L165.584 59.8636L166.416 61.3986L163.495 66.0942L164.97 68.8161L168.008 63.5045C169.235 64.5593 170.701 64.8089 172.236 63.9768ZM170.872 61.4607C169.86 62.0096 169.049 61.6096 168.363 60.3436L167.531 58.8086L170.49 57.2046L171.322 58.7396C172.008 60.0056 171.885 60.9117 170.872 61.4607Z" fill="#C2C2C2"/>
<path d="M167.267 74.4346L168.005 77.1998L173.275 75.7932L174.524 80.4714L169.254 81.878L169.992 84.6432L182.166 81.3937L181.428 78.6285L176.802 79.8633L175.553 75.1851L180.179 73.9503L179.441 71.1851L167.267 74.4346Z" fill="#C2C2C2"/>
<path d="M177.682 97.8678C181.378 97.5678 183.996 95.1159 183.695 91.4021C183.393 87.6884 180.414 85.6909 176.718 85.9909C173.022 86.2909 170.404 88.7428 170.705 92.4566C171.007 96.1703 173.986 98.1678 177.682 97.8678ZM176.952 88.8794C179.482 88.674 181.157 89.73 181.308 91.5958C181.46 93.4617 179.977 94.774 177.447 94.9793C174.918 95.1847 173.243 94.1287 173.091 92.2629C172.94 90.397 174.423 89.0847 176.952 88.8794Z" fill="#C2C2C2"/>
</svg>
