<svg width="29" height="29" viewBox="0 0 29 29" fill="none" xmlns="http://www.w3.org/2000/svg">
<path d="M8.66439 0.5C4.16222 0.5 0.5 4.16561 0.5 8.66895V20.3356C0.5 24.8378 4.16561 28.5 8.66895 28.5H20.3356C24.8378 28.5 28.5 24.8344 28.5 20.3311V8.66439C28.5 4.16222 24.8344 0.5 20.3311 0.5H8.66439ZM22.6667 5.16667C23.3107 5.16667 23.8333 5.68933 23.8333 6.33333C23.8333 6.97733 23.3107 7.5 22.6667 7.5C22.0227 7.5 21.5 6.97733 21.5 6.33333C21.5 5.68933 22.0227 5.16667 22.6667 5.16667ZM14.5 7.5C18.3605 7.5 21.5 10.6395 21.5 14.5C21.5 18.3605 18.3605 21.5 14.5 21.5C10.6395 21.5 7.5 18.3605 7.5 14.5C7.5 10.6395 10.6395 7.5 14.5 7.5ZM14.5 9.83333C13.2623 9.83333 12.0753 10.325 11.2002 11.2002C10.325 12.0753 9.83333 13.2623 9.83333 14.5C9.83333 15.7377 10.325 16.9247 11.2002 17.7998C12.0753 18.675 13.2623 19.1667 14.5 19.1667C15.7377 19.1667 16.9247 18.675 17.7998 17.7998C18.675 16.9247 19.1667 15.7377 19.1667 14.5C19.1667 13.2623 18.675 12.0753 17.7998 11.2002C16.9247 10.325 15.7377 9.83333 14.5 9.83333V9.83333Z" fill="#E2454C"/>
</svg>
