<svg width="37" height="37" viewBox="0 0 37 37" fill="none" xmlns="http://www.w3.org/2000/svg">
<path d="M0.404299 9.77772C0.113281 9.48643 0.11328 9.01414 0.404298 8.72285L8.69961 0.419643C8.99063 0.128349 9.46247 0.128348 9.75348 0.419643L18.0488 8.72285C18.3398 9.01414 18.3398 9.48642 18.0488 9.77772L9.75349 18.0809C9.46247 18.3722 8.99063 18.3722 8.69961 18.0809L0.404299 9.77772Z" fill="#E2454C"/>
<path d="M18.3233 9.77772C18.0323 9.48643 18.0322 9.01414 18.3233 8.72285L26.6186 0.419643C26.9096 0.128349 27.3814 0.128348 27.6725 0.419643L35.9678 8.72285C36.2588 9.01414 36.2588 9.48642 35.9678 9.77772L27.6725 18.0809C27.3814 18.3722 26.9096 18.3722 26.6186 18.0809L18.3233 9.77772Z" fill="#E2454C"/>
<path d="M0.404299 27.6795C0.113281 27.3882 0.11328 26.9159 0.404298 26.6246L8.69961 18.3214C8.99063 18.0301 9.46247 18.0301 9.75348 18.3214L18.0488 26.6246C18.3398 26.9159 18.3398 27.3882 18.0488 27.6795L9.75349 35.9827C9.46247 36.274 8.99063 36.274 8.69961 35.9827L0.404299 27.6795Z" fill="#E2454C"/>
<path d="M18.3233 27.6795C18.0323 27.3882 18.0322 26.9159 18.3233 26.6246L26.6186 18.3214C26.9096 18.0301 27.3814 18.0301 27.6725 18.3214L35.9678 26.6246C36.2588 26.9159 36.2588 27.3882 35.9678 27.6795L27.6725 35.9827C27.3814 36.274 26.9096 36.274 26.6186 35.9827L18.3233 27.6795Z" fill="#E2454C"/>
</svg>
