<svg width="26" height="26" viewBox="0 0 26 26" fill="none" xmlns="http://www.w3.org/2000/svg">
<path d="M0.157635 6.9164C-0.0525446 6.70602 -0.0525452 6.36492 0.157635 6.15454L6.1487 0.157785C6.35888 -0.0525946 6.69964 -0.0525952 6.90982 0.157784L12.9009 6.15454C13.1111 6.36492 13.1111 6.70602 12.9009 6.9164L6.90983 12.9132C6.69965 13.1235 6.35888 13.1235 6.1487 12.9132L0.157635 6.9164Z" fill="#E2454C"/>
<path d="M13.0991 6.9164C12.8889 6.70602 12.8889 6.36492 13.0991 6.15454L19.0902 0.157785C19.3004 -0.0525946 19.6411 -0.0525952 19.8513 0.157784L25.8424 6.15454C26.0525 6.36492 26.0525 6.70602 25.8424 6.9164L19.8513 12.9132C19.6411 13.1235 19.3004 13.1235 19.0902 12.9132L13.0991 6.9164Z" fill="#E2454C"/>
<path d="M0.157635 19.8455C-0.0525446 19.6351 -0.0525452 19.294 0.157635 19.0836L6.1487 13.0868C6.35888 12.8765 6.69964 12.8765 6.90982 13.0868L12.9009 19.0836C13.1111 19.294 13.1111 19.6351 12.9009 19.8455L6.90983 25.8422C6.69965 26.0526 6.35888 26.0526 6.1487 25.8422L0.157635 19.8455Z" fill="#E2454C"/>
<path d="M13.0991 19.8455C12.8889 19.6351 12.8889 19.294 13.0991 19.0836L19.0902 13.0868C19.3004 12.8765 19.6411 12.8765 19.8513 13.0868L25.8424 19.0836C26.0525 19.294 26.0525 19.6351 25.8424 19.8455L19.8513 25.8422C19.6411 26.0526 19.3004 26.0526 19.0902 25.8422L13.0991 19.8455Z" fill="#E2454C"/>
</svg>
