<svg width="245" height="245" viewBox="0 0 245 245" fill="none" xmlns="http://www.w3.org/2000/svg">
<path d="M100.785 112.39C100.425 112.03 100.425 111.445 100.785 111.084L111.055 100.804C111.415 100.444 112 100.444 112.36 100.804L122.63 111.084C122.991 111.445 122.991 112.03 122.63 112.39L112.36 122.67C112 123.031 111.415 123.031 111.055 122.67L100.785 112.39Z" fill="#E2454C"/>
<path d="M122.97 112.39C122.61 112.03 122.61 111.445 122.97 111.084L133.24 100.804C133.601 100.444 134.185 100.444 134.545 100.804L144.815 111.084C145.176 111.445 145.176 112.03 144.815 112.39L134.545 122.67C134.185 123.031 133.601 123.031 133.24 122.67L122.97 112.39Z" fill="#E2454C"/>
<path d="M100.785 134.554C100.425 134.193 100.425 133.609 100.785 133.248L111.055 122.968C111.415 122.607 112 122.607 112.36 122.968L122.63 133.248C122.991 133.609 122.991 134.193 122.63 134.554L112.36 144.834C112 145.195 111.415 145.195 111.055 144.834L100.785 134.554Z" fill="#E2454C"/>
<path d="M122.97 134.554C122.61 134.193 122.61 133.609 122.97 133.248L133.24 122.968C133.601 122.607 134.185 122.607 134.545 122.968L144.815 133.248C145.176 133.609 145.176 134.193 144.815 134.554L134.545 144.834C134.185 145.195 133.601 145.195 133.24 144.834L122.97 134.554Z" fill="#E2454C"/>
<path d="M212.812 129.903L225.015 135.3L225.263 132.25L216.131 128.385L225.766 126.043L226.014 122.993L213.1 126.351L212.812 129.903Z" fill="#C2C2C2"/>
<path d="M224.116 140.658L211.767 138.156L211.195 140.979L223.544 143.481L224.116 140.658Z" fill="#C2C2C2"/>
<path d="M221.637 151.368L222.541 148.653L210.586 144.673L209.682 147.388L212.62 148.366L214.066 150.517L208.244 151.709L207.22 154.783L215.684 152.839L219.352 158.234L220.352 155.228L216.24 149.572L221.637 151.368Z" fill="#C2C2C2"/>
<path d="M204.292 161.472L202.974 164.013L212.067 168.727L210.394 171.955L212.488 173.04L217.151 164.043L215.058 162.958L213.385 166.186L204.292 161.472Z" fill="#C2C2C2"/>
<path d="M198.039 183.196C201.022 185.399 204.607 185.272 206.82 182.275C209.034 179.278 208.102 175.814 205.119 173.611C202.137 171.408 198.552 171.535 196.338 174.532C194.124 177.529 195.057 180.993 198.039 183.196ZM203.397 175.942C205.439 177.45 206.007 179.347 204.895 180.853C203.783 182.358 201.803 182.373 199.761 180.865C197.72 179.357 197.151 177.46 198.264 175.955C199.376 174.449 201.356 174.434 203.397 175.942Z" fill="#C2C2C2"/>
<path d="M188.886 196.287C190.703 198.186 192.978 197.777 195.241 195.611L198.556 192.437L189.843 183.335L187.776 185.314L191.099 188.786L189.838 189.993L184.538 188.414L182.302 190.555L188.227 192.084C187.533 193.546 187.679 195.026 188.886 196.287ZM190.953 194.308C190.157 193.476 190.329 192.589 191.369 191.593L192.63 190.385L194.958 192.817L193.697 194.024C192.657 195.02 191.75 195.14 190.953 194.308Z" fill="#C2C2C2"/>
<path d="M185.994 203.786L178.434 193.706L176.13 195.434L183.69 205.514L185.994 203.786Z" fill="#C2C2C2"/>
<path d="M179.566 208.437L172.803 197.806L170.373 199.352L177.137 209.983L179.566 208.437Z" fill="#C2C2C2"/>
<path d="M166.433 215.845L169.65 214.311L168.193 201.048L165.431 202.365L165.815 205.053L161.672 207.028L159.809 205.045L157.047 206.361L166.433 215.845ZM166.88 212.641L163.281 208.773L166.141 207.41L166.88 212.641Z" fill="#C2C2C2"/>
<path d="M144.247 212.619C145.458 212.344 146.625 212.689 147.571 213.36L149.238 211.432C147.652 210.297 145.704 209.926 143.597 210.403C140.806 211.036 139.367 212.912 139.868 215.124C140.338 217.196 141.824 217.892 144.676 218.095C146.703 218.245 147.337 218.6 147.504 219.337C147.655 220.004 147.232 220.58 146.126 220.83C145.213 221.037 144.257 220.811 143.501 220.244L141.937 222.056C143.32 223.109 145.108 223.423 146.898 223.018C149.584 222.409 150.768 220.628 150.306 218.591C149.905 216.818 148.504 215.77 145.757 215.617C143.31 215.489 142.838 215.116 142.651 214.291C142.48 213.536 143.053 212.889 144.247 212.619Z" fill="#C2C2C2"/>
<path d="M135.453 224.926L134.096 212.4L131.232 212.71L132.59 225.237L135.453 224.926Z" fill="#C2C2C2"/>
<path d="M119.69 215.407L116.528 220.899L116.802 213.02L114.031 212.923L113.594 225.516L116.454 225.615L120.464 218.532L123.973 225.876L126.834 225.976L127.271 213.383L124.501 213.287L124.227 221.166L121.453 215.469L119.69 215.407Z" fill="#C2C2C2"/>
<path d="M99.1068 223.17L102.586 223.944L109.61 212.599L106.623 211.934L105.27 214.289L100.789 213.291L100.544 210.581L97.5572 209.917L99.1068 223.17ZM101.433 220.921L100.982 215.658L104.074 216.346L101.433 220.921Z" fill="#C2C2C2"/>
<path d="M86.5792 219.531L89.2314 220.606L93.9658 208.929L91.3135 207.854L90.1502 210.723L87.9112 212.03L87.0932 206.143L84.0906 204.926L85.491 213.496L79.8734 216.812L82.8092 218.002L88.7164 214.26L86.5792 219.531Z" fill="#C2C2C2"/>
<path d="M67.1415 202.495C65.174 205.638 65.576 209.202 68.7342 211.179C71.8924 213.156 75.2742 211.96 77.2417 208.817C79.2092 205.674 78.8073 202.11 75.6491 200.133C72.4909 198.156 69.109 199.352 67.1415 202.495ZM74.7853 207.28C73.4387 209.431 71.5912 210.143 70.0045 209.15C68.4177 208.157 68.2512 206.184 69.5979 204.032C70.9446 201.881 72.7921 201.169 74.3788 202.162C75.9655 203.155 76.132 205.128 74.7853 207.28Z" fill="#C2C2C2"/>
<path d="M61.2319 189.709L49.5508 196.159L51.8293 198.201L60.432 193.271L56.4665 202.359L58.7449 204.402L63.8856 192.088L61.2319 189.709Z" fill="#C2C2C2"/>
<path d="M41.1351 186.661L43.3659 189.44L55.9416 184.979L54.0262 182.592L51.4978 183.583L48.6248 180.003L50.128 177.735L48.2127 175.349L41.1351 186.661ZM44.3562 186.36L47.2954 181.97L49.2783 184.441L44.3562 186.36Z" fill="#C2C2C2"/>
<path d="M33.3032 163.621L32.11 165.413L34.4165 166.628L31.9887 167.57L32.9532 169.483L35.1541 168.091L34.7524 170.652L36.9102 170.773L36.7966 168.19L38.8227 169.809L40.0079 168.002L37.7095 166.802L40.1212 165.868L39.1567 163.955L36.9719 165.339L37.3655 162.762L35.2158 162.657L35.3133 165.249L33.3032 163.621Z" fill="#C2C2C2"/>
<path d="M23.8668 154.872L35.9088 151.164L35.0613 148.411L23.0193 152.119L23.8668 154.872Z" fill="#C2C2C2"/>
<path d="M31.0358 141.049C31.2639 142.27 30.875 143.423 30.1678 144.343L32.0308 146.082C33.2261 144.541 33.6708 142.608 33.2742 140.485C32.7488 137.671 30.9287 136.162 28.6992 136.578C26.6113 136.968 25.8584 138.427 25.5468 141.269C25.3199 143.289 24.9413 143.909 24.1981 144.048C23.5258 144.173 22.9666 143.728 22.7584 142.614C22.5865 141.694 22.8492 140.747 23.4446 140.014L21.6932 138.381C20.5887 139.723 20.206 141.497 20.5431 143.302C21.0487 146.009 22.7839 147.26 24.8364 146.877C26.6235 146.543 27.7246 145.184 27.982 142.444C28.2037 140.004 28.5943 139.546 29.426 139.391C30.1868 139.249 30.8111 139.846 31.0358 141.049Z" fill="#C2C2C2"/>
<path d="M18.7348 117.506L18.5836 121.067L30.9858 125.989L31.1157 122.932L28.5604 122.013L28.7552 117.427L31.38 116.71L31.5098 113.653L18.7348 117.506ZM21.3568 119.401L26.4594 118.032L26.325 121.197L21.3568 119.401Z" fill="#C2C2C2"/>
<path d="M32.8001 104.379L34.9509 96.1966L32.6703 95.5972L31.2472 101.011L21.3417 98.4075L20.6141 101.175L32.8001 104.379Z" fill="#C2C2C2"/>
<path d="M24.6129 87.35L36.3763 91.8648L37.4082 89.176L25.6449 84.6612L24.6129 87.35Z" fill="#C2C2C2"/>
<path d="M38.6503 85.7166L39.958 83.1708L35.5229 80.8927L37.7764 76.5056L35.7429 75.4611L33.4895 79.8482L30.7836 78.4583L33.3249 73.5108L31.2914 72.4663L27.4424 79.9596L38.6503 85.7166Z" fill="#C2C2C2"/>
<path d="M44.8136 74.047L49.7879 67.0488L47.9246 65.7244L44.6084 70.3899L42.1289 68.6275L44.9863 64.6075L43.123 63.2831L40.2656 67.3031L38.0649 65.7388L41.2873 61.2054L39.424 59.881L34.5436 66.7472L44.8136 74.047Z" fill="#C2C2C2"/>
<path d="M52.1956 63.8444L58.0014 57.691L56.2862 56.0728L52.4446 60.1445L44.995 53.1159L43.0309 55.1976L52.1956 63.8444Z" fill="#C2C2C2"/>
<path d="M65.7098 42.9273C63.442 39.9937 59.9587 39.1372 57.0108 41.416C54.0629 43.6948 54.0144 47.2815 56.2823 50.2152C58.5501 53.1488 62.0334 54.0053 64.9812 51.7265C67.9291 49.4476 67.9776 45.8609 65.7098 42.9273ZM58.5751 48.4427C57.0228 46.4348 56.9939 44.455 58.475 43.31C59.9561 42.1651 61.8647 42.6917 63.417 44.6997C64.9692 46.7077 64.9981 48.6875 63.5171 49.8324C62.036 50.9773 60.1273 50.4507 58.5751 48.4427Z" fill="#C2C2C2"/>
<path d="M73.7524 44.8361L76.2135 43.5604L72.5024 36.401L80.6241 41.2741L83.1011 39.9902L77.3026 28.8037L74.8416 30.0794L78.5527 37.2387L70.4309 32.3656L67.9539 33.6496L73.7524 44.8361Z" fill="#C2C2C2"/>
<path d="M85.8068 31.6158C86.9722 35.4004 90.236 37.0699 93.7626 35.9839C95.913 35.3218 97.379 33.9663 98.039 32.2563L96.6088 27.6116L91.5683 29.1637L92.1775 31.142L94.6031 30.3951L95.1116 32.0466C94.8498 32.7864 94.0731 33.3834 93.0925 33.6853C91.269 34.2468 89.3711 33.3434 88.5765 30.7629C87.7819 28.1825 88.8085 26.3785 90.4771 25.8647C91.7674 25.4674 92.8367 25.7596 93.7567 26.6064L95.7003 24.7837C94.1 23.3177 92.009 22.8881 89.6694 23.6085C86.2804 24.652 84.6467 27.8484 85.8068 31.6158Z" fill="#C2C2C2"/>
<path d="M109.254 31.9709L117.814 31.3092L117.638 29.03L111.931 29.4711L111.697 26.4382L116.614 26.0581L116.438 23.7789L111.521 24.159L111.312 21.467L116.858 21.0384L116.682 18.7592L108.283 19.4084L109.254 31.9709Z" fill="#C2C2C2"/>
<path d="M126.625 21.0293L128.257 21.1618C130.267 21.3249 131.49 22.7244 131.275 25.3618C131.061 27.9991 129.629 29.1831 127.619 29.02L125.987 28.8874L126.625 21.0293ZM134.164 25.5962C134.465 21.8825 132.323 19.1261 128.556 18.8203L123.963 18.4474L122.943 31.0061L127.536 31.379C131.304 31.6848 133.861 29.328 134.164 25.5962Z" fill="#C2C2C2"/>
<path d="M143.093 33.8626C146.265 34.6834 148.777 33.4556 149.652 30.0749L151.532 22.8084L148.762 22.0913L146.863 29.4276C146.398 31.2224 145.349 31.9734 143.693 31.545C142.038 31.1165 141.484 29.9506 141.949 28.1558L143.848 20.8195L141.077 20.1024L139.196 27.369C138.321 30.7496 139.992 33.0598 143.093 33.8626Z" fill="#C2C2C2"/>
<path d="M155.655 30.5658C154.026 34.1551 155.207 37.5184 158.55 39.0366C160.714 40.019 162.914 39.8319 164.623 38.5918L162.944 36.5442C161.883 37.2686 160.769 37.415 159.638 36.9015C157.934 36.1275 157.178 34.2224 158.294 31.764C159.41 29.3056 161.342 28.6211 163.047 29.3951C164.178 29.9086 164.801 30.8439 164.953 32.119L167.6 32.0361C167.409 29.9327 166.102 28.153 163.938 27.1706C160.595 25.6524 157.285 26.9765 155.655 30.5658Z" fill="#C2C2C2"/>
<path d="M180.1 36.3488L177.144 34.3591L166.465 42.3606L169.004 44.069L171.123 42.3708L174.931 44.9333L174.171 47.546L176.71 49.2544L180.1 36.3488ZM177.115 37.594L175.615 42.6597L172.987 40.8911L177.115 37.594Z" fill="#C2C2C2"/>
<path d="M181.35 53.0561L183.46 54.9897L190.38 47.4387L193.06 49.8952L194.654 48.1567L187.182 41.3101L185.589 43.0485L188.27 45.5051L181.35 53.0561Z" fill="#C2C2C2"/>
<path d="M200.934 64.996C203.843 62.6963 204.661 59.2039 202.35 56.2811C200.039 53.3583 196.452 53.349 193.544 55.6488C190.635 57.9485 189.817 61.441 192.128 64.3637C194.439 67.2865 198.026 67.2958 200.934 64.996ZM195.341 57.9221C197.332 56.3479 199.311 56.2974 200.472 57.7659C201.633 59.2343 201.128 61.1487 199.137 62.7228C197.146 64.2969 195.167 64.3474 194.006 62.8789C192.845 61.4105 193.35 59.4962 195.341 57.9221Z" fill="#C2C2C2"/>
<path d="M211.223 77.3293C213.534 76.077 213.74 73.7747 212.247 71.0212L210.06 66.9859L198.982 72.9902L200.346 75.5064L204.572 73.2162L205.404 74.7512L202.482 79.4468L203.958 82.1686L206.995 76.8571C208.222 77.9119 209.688 78.1614 211.223 77.3293ZM209.86 74.8132C208.847 75.3622 208.036 74.9621 207.35 73.6961L206.518 72.1611L209.477 70.5571L210.309 72.0921C210.995 73.3581 210.872 74.2642 209.86 74.8132Z" fill="#C2C2C2"/>
<path d="M208.158 91.5429L208.896 94.3081L214.166 92.9016L215.415 97.5798L210.145 98.9863L210.883 101.752L223.057 98.502L222.319 95.7369L217.693 96.9717L216.444 92.2934L221.07 91.0586L220.332 88.2935L208.158 91.5429Z" fill="#C2C2C2"/>
<path d="M219.433 118.191C223.128 117.891 225.747 115.439 225.445 111.725C225.144 108.011 222.164 106.014 218.469 106.314C214.773 106.614 212.154 109.066 212.456 112.779C212.757 116.493 215.737 118.491 219.433 118.191ZM218.703 109.202C221.233 108.997 222.908 110.053 223.059 111.919C223.211 113.784 221.728 115.097 219.198 115.302C216.668 115.507 214.994 114.451 214.842 112.586C214.691 110.72 216.173 109.407 218.703 109.202Z" fill="#C2C2C2"/>
</svg>
