<svg width="66" height="66" viewBox="0 0 66 66" fill="none" xmlns="http://www.w3.org/2000/svg">
<path d="M0.400151 17.557C-0.133383 17.023 -0.133384 16.1571 0.400149 15.6231L15.6082 0.400531C16.1418 -0.133509 17.0068 -0.133511 17.5403 0.40053L32.7484 15.6231C33.2819 16.1571 33.2819 17.023 32.7484 17.557L17.5403 32.7795C17.0068 33.3136 16.1418 33.3136 15.6082 32.7795L0.400151 17.557Z" fill="#E2454C"/>
<path d="M33.2516 17.557C32.7181 17.023 32.7181 16.1571 33.2516 15.6231L48.4597 0.400531C48.9932 -0.133509 49.8582 -0.133511 50.3918 0.40053L65.5998 15.6231C66.1334 16.1571 66.1334 17.023 65.5999 17.557L50.3918 32.7795C49.8582 33.3136 48.9932 33.3136 48.4597 32.7795L33.2516 17.557Z" fill="#E2454C"/>
<path d="M0.400151 50.3769C-0.133383 49.8429 -0.133384 48.977 0.400149 48.443L15.6082 33.2205C16.1418 32.6864 17.0068 32.6864 17.5403 33.2205L32.7484 48.443C33.2819 48.977 33.2819 49.8429 32.7484 50.3769L17.5403 65.5995C17.0068 66.1335 16.1418 66.1335 15.6082 65.5995L0.400151 50.3769Z" fill="#E2454C"/>
<path d="M33.2516 50.3769C32.7181 49.8429 32.7181 48.977 33.2516 48.443L48.4597 33.2205C48.9932 32.6864 49.8582 32.6864 50.3918 33.2205L65.5998 48.443C66.1334 48.977 66.1334 49.8429 65.5999 50.3769L50.3918 65.5995C49.8582 66.1335 48.9932 66.1335 48.4597 65.5995L33.2516 50.3769Z" fill="#E2454C"/>
</svg>
