<svg width="333" height="333" viewBox="0 0 333 333" fill="none" xmlns="http://www.w3.org/2000/svg">
<path d="M71.077 281.846C68.3868 283.452 64.9015 282.575 63.2924 279.886L17.4269 203.246C15.8178 200.557 16.6943 197.075 19.3845 195.469L96.0685 149.676C98.7587 148.07 102.244 148.947 103.853 151.636L149.719 228.276C151.328 230.965 150.451 234.447 147.761 236.053L71.077 281.846Z" fill="#EFEFEF" fill-opacity="0.5"/>
<path d="M104.363 149.61C101.673 151.217 98.1874 150.339 96.5783 147.651L50.7128 71.0103C49.1038 68.3216 49.9802 64.8396 52.6705 63.2331L129.354 17.4404C132.045 15.8339 135.53 16.7112 137.139 19.3999L183.005 96.0403C184.614 98.729 183.737 102.211 181.047 103.817L104.363 149.61Z" fill="#EFEFEF" fill-opacity="0.5"/>
<path d="M203.186 315.1C200.496 316.706 197.01 315.829 195.401 313.14L149.536 236.5C147.927 233.811 148.803 230.329 151.493 228.723L228.177 182.93C230.868 181.324 234.353 182.201 235.962 184.89L281.827 261.53C283.436 264.219 282.56 267.701 279.87 269.307L203.186 315.1Z" fill="#EFEFEF" fill-opacity="0.5"/>
<path d="M236.472 182.864C233.781 184.471 230.296 183.593 228.687 180.905L182.822 104.264C181.213 101.576 182.089 98.0936 184.779 96.4871L261.463 50.6944C264.153 49.0879 267.639 49.9652 269.248 52.6539L315.113 129.294C316.722 131.983 315.846 135.465 313.156 137.071L236.472 182.864Z" fill="#EFEFEF" fill-opacity="0.5"/>
</svg>
