<svg width="57" height="57" viewBox="0 0 57 57" fill="none" xmlns="http://www.w3.org/2000/svg">
<path d="M0.345585 15.1629C-0.115194 14.7017 -0.115195 13.9539 0.345583 13.4927L13.4798 0.345913C13.9406 -0.115304 14.6877 -0.115305 15.1485 0.345912L28.2827 13.4927C28.7435 13.9539 28.7435 14.7017 28.2827 15.1629L15.1485 28.3096C14.6877 28.7708 13.9406 28.7708 13.4798 28.3096L0.345585 15.1629Z" fill="#E2454C"/>
<path d="M28.7173 15.1629C28.2565 14.7017 28.2565 13.9539 28.7173 13.4927L41.8515 0.345913C42.3123 -0.115304 43.0594 -0.115305 43.5202 0.345912L56.6544 13.4927C57.1152 13.9539 57.1152 14.7017 56.6544 15.1629L43.5202 28.3096C43.0594 28.7708 42.3123 28.7708 41.8515 28.3096L28.7173 15.1629Z" fill="#E2454C"/>
<path d="M0.345585 43.5073C-0.115194 43.0461 -0.115195 42.2984 0.345583 41.8371L13.4798 28.6904C13.9406 28.2292 14.6877 28.2292 15.1485 28.6904L28.2827 41.8371C28.7435 42.2983 28.7435 43.0461 28.2827 43.5073L15.1485 56.6541C14.6877 57.1153 13.9406 57.1153 13.4798 56.6541L0.345585 43.5073Z" fill="#E2454C"/>
<path d="M28.7173 43.5073C28.2565 43.0461 28.2565 42.2984 28.7173 41.8371L41.8515 28.6904C42.3123 28.2292 43.0594 28.2292 43.5202 28.6904L56.6544 41.8371C57.1152 42.2983 57.1152 43.0461 56.6544 43.5073L43.5202 56.6541C43.0594 57.1153 42.3123 57.1153 41.8515 56.6541L28.7173 43.5073Z" fill="#E2454C"/>
</svg>
