<svg width="187" height="187" viewBox="0 0 187 187" fill="none" xmlns="http://www.w3.org/2000/svg">
<path d="M77.1047 84.0894C76.829 83.8134 76.829 83.3661 77.1047 83.0902L84.9619 75.2255C85.2376 74.9496 85.6845 74.9496 85.9601 75.2255L93.8174 83.0902C94.093 83.3661 94.093 83.8134 93.8174 84.0894L85.9601 91.9541C85.6845 92.23 85.2376 92.23 84.9619 91.9541L77.1047 84.0894Z" fill="#E2454C"/>
<path d="M94.0773 84.0894C93.8017 83.8134 93.8017 83.3661 94.0773 83.0902L101.935 75.2255C102.21 74.9496 102.657 74.9496 102.933 75.2255L110.79 83.0902C111.066 83.3661 111.066 83.8134 110.79 84.0894L102.933 91.9541C102.657 92.23 102.21 92.23 101.935 91.9541L94.0773 84.0894Z" fill="#E2454C"/>
<path d="M77.1047 101.046C76.829 100.77 76.829 100.322 77.1047 100.047L84.9619 92.1819C85.2376 91.9059 85.6845 91.9059 85.9601 92.1819L93.8174 100.047C94.093 100.322 94.093 100.77 93.8174 101.046L85.9601 108.91C85.6845 109.186 85.2376 109.186 84.9619 108.91L77.1047 101.046Z" fill="#E2454C"/>
<path d="M94.0773 101.046C93.8017 100.77 93.8017 100.322 94.0773 100.047L101.935 92.1819C102.21 91.9059 102.657 91.9059 102.933 92.1819L110.79 100.047C111.066 100.322 111.066 100.77 110.79 101.046L102.933 108.91C102.657 109.186 102.21 109.186 101.935 108.91L94.0773 101.046Z" fill="#E2454C"/>
<path d="M161.373 101.217L173.577 106.614L173.824 103.564L164.693 99.6988L174.328 97.3567L174.576 94.3067L161.662 97.6649L161.373 101.217Z" fill="#C2C2C2"/>
<path d="M173.037 108.267L160.688 105.764L160.116 108.587L172.465 111.089L173.037 108.267Z" fill="#C2C2C2"/>
<path d="M170.842 117.268L171.746 114.553L159.791 110.573L158.887 113.288L161.825 114.266L163.271 116.417L157.449 117.609L156.425 120.683L164.889 118.739L168.557 124.134L169.557 121.128L165.445 115.471L170.842 117.268Z" fill="#C2C2C2"/>
<path d="M154.724 123.769L153.407 126.31L162.5 131.023L160.827 134.251L162.92 135.337L167.584 126.339L165.49 125.254L163.817 128.482L154.724 123.769Z" fill="#C2C2C2"/>
<path d="M149.901 142.661C152.883 144.865 156.468 144.738 158.682 141.741C160.896 138.743 159.963 135.28 156.98 133.077C153.998 130.874 150.413 131.001 148.199 133.998C145.986 136.995 146.918 140.458 149.901 142.661ZM155.259 135.408C157.3 136.916 157.868 138.812 156.756 140.318C155.644 141.824 153.664 141.838 151.622 140.33C149.581 138.823 149.013 136.926 150.125 135.42C151.237 133.914 153.217 133.9 155.259 135.408Z" fill="#C2C2C2"/>
<path d="M143.168 152.501C144.985 154.399 147.26 153.991 149.523 151.825L152.838 148.651L144.125 139.549L142.058 141.528L145.381 145L144.12 146.207L138.82 144.628L136.584 146.769L142.509 148.298C141.815 149.76 141.961 151.24 143.168 152.501ZM145.235 150.522C144.439 149.69 144.611 148.802 145.651 147.807L146.912 146.599L149.24 149.031L147.979 150.238C146.939 151.234 146.032 151.354 145.235 150.522Z" fill="#C2C2C2"/>
<path d="M143.036 157.445L135.476 147.365L133.172 149.093L140.732 159.173L143.036 157.445Z" fill="#C2C2C2"/>
<path d="M137.999 161.055L131.235 150.425L128.805 151.971L135.569 162.601L137.999 161.055Z" fill="#C2C2C2"/>
<path d="M126.294 167.482L129.511 165.948L128.054 152.685L125.291 154.002L125.676 156.69L121.532 158.665L119.67 156.682L116.907 157.998L126.294 167.482ZM126.741 164.278L123.142 160.41L126.002 159.047L126.741 164.278Z" fill="#C2C2C2"/>
<path d="M108.877 162.185C110.089 161.91 111.256 162.255 112.201 162.927L113.869 160.999C112.282 159.863 110.334 159.492 108.228 159.97C105.436 160.602 103.998 162.478 104.499 164.69C104.968 166.762 106.455 167.458 109.306 167.661C111.333 167.811 111.967 168.166 112.134 168.903C112.286 169.57 111.862 170.146 110.756 170.397C109.844 170.603 108.888 170.377 108.132 169.81L106.568 171.622C107.951 172.675 109.738 172.99 111.529 172.584C114.215 171.975 115.398 170.194 114.937 168.157C114.535 166.384 113.135 165.336 110.387 165.183C107.94 165.055 107.468 164.682 107.281 163.857C107.11 163.102 107.684 162.455 108.877 162.185Z" fill="#C2C2C2"/>
<path d="M103.481 173.782L102.123 161.255L99.2601 161.565L100.617 174.092L103.481 173.782Z" fill="#C2C2C2"/>
<path d="M89.5196 163.978L86.357 169.47L86.6308 161.59L83.8605 161.494L83.4229 174.086L86.2832 174.186L90.2936 167.103L93.8026 174.447L96.6629 174.547L97.1005 161.954L94.3302 161.858L94.0564 169.737L91.2826 164.039L89.5196 163.978Z" fill="#C2C2C2"/>
<path d="M73.5581 171.949L77.037 172.723L84.0616 161.379L81.0747 160.714L79.7209 163.068L75.2405 162.071L74.9954 159.361L72.0085 158.696L73.5581 171.949ZM75.8842 169.701L75.433 164.437L78.5253 165.125L75.8842 169.701Z" fill="#C2C2C2"/>
<path d="M64.6944 169.135L67.3466 170.21L72.081 158.534L69.4287 157.458L68.2654 160.327L66.0264 161.634L65.2084 155.747L62.2058 154.53L63.6062 163.1L57.9886 166.416L60.9244 167.606L66.8316 163.864L64.6944 169.135Z" fill="#C2C2C2"/>
<path d="M48.7426 153.507C46.7751 156.65 47.177 160.214 50.3352 162.191C53.4934 164.168 56.8753 162.972 58.8428 159.83C60.8102 156.687 60.4083 153.122 57.2501 151.145C54.0919 149.168 50.71 150.364 48.7426 153.507ZM56.3864 158.292C55.0397 160.443 53.1922 161.155 51.6055 160.162C50.0187 159.169 49.8523 157.196 51.1989 155.044C52.5456 152.893 54.3931 152.181 55.9798 153.174C57.5666 154.168 57.733 156.141 56.3864 158.292Z" fill="#C2C2C2"/>
<path d="M46.2536 142.881L34.5725 149.331L36.8509 151.374L45.4537 146.443L41.4882 155.531L43.7666 157.574L48.9073 145.261L46.2536 142.881Z" fill="#C2C2C2"/>
<path d="M28.9446 142.336L31.1753 145.116L43.751 140.655L41.8357 138.268L39.3072 139.259L36.4343 135.679L37.9375 133.411L36.0222 131.024L28.9446 142.336ZM32.1657 142.036L35.1049 137.646L37.0878 140.117L32.1657 142.036Z" fill="#C2C2C2"/>
<path d="M24.196 123.456L23.0028 125.248L25.3092 126.463L22.8814 127.405L23.846 129.318L26.0468 127.926L25.6452 130.487L27.8029 130.608L27.6894 128.025L29.7155 129.644L30.9006 127.836L28.6022 126.637L31.014 125.703L30.0494 123.79L27.8646 125.174L28.2582 122.597L26.1085 122.492L26.2061 125.083L24.196 123.456Z" fill="#C2C2C2"/>
<path d="M16.5588 118.662L28.6008 114.954L27.7533 112.202L15.7112 115.91L16.5588 118.662Z" fill="#C2C2C2"/>
<path d="M24.2785 106.45C24.5065 107.671 24.1176 108.824 23.4104 109.743L25.2734 111.483C26.4687 109.941 26.9134 108.009 26.5169 105.885C25.9914 103.072 24.1713 101.562 21.9419 101.979C19.854 102.369 19.1011 103.828 18.7895 106.669C18.5625 108.689 18.1839 109.309 17.4407 109.448C16.7684 109.574 16.2092 109.129 16.001 108.014C15.8291 107.094 16.0918 106.148 16.6872 105.414L14.9358 103.782C13.8313 105.123 13.4486 106.898 13.7857 108.703C14.2914 111.41 16.0265 112.66 18.079 112.277C19.8661 111.943 20.9672 110.584 21.2246 107.844C21.4463 105.404 21.837 104.947 22.6686 104.791C23.4294 104.649 24.0537 105.247 24.2785 106.45Z" fill="#C2C2C2"/>
<path d="M12.7402 87.8826L12.589 91.4434L24.9912 96.3662L25.1211 93.3089L22.5658 92.3896L22.7606 87.8038L25.3854 87.0865L25.5153 84.0293L12.7402 87.8826ZM15.3622 89.7776L20.4648 88.4089L20.3304 91.574L15.3622 89.7776Z" fill="#C2C2C2"/>
<path d="M26.4147 79.878L28.5655 71.6959L26.2849 71.0965L24.8618 76.5105L14.9563 73.9068L14.2287 76.6747L26.4147 79.878Z" fill="#C2C2C2"/>
<path d="M17.3824 65.918L29.1458 70.4329L30.1777 67.7441L18.4144 63.2293L17.3824 65.918Z" fill="#C2C2C2"/>
<path d="M30.8543 65.8851L32.1619 63.3393L27.7268 61.0612L29.9803 56.6741L27.9469 55.6296L25.6934 60.0167L22.9875 58.6268L25.5288 53.6793L23.4954 52.6348L19.6464 60.1281L30.8543 65.8851Z" fill="#C2C2C2"/>
<path d="M35.5115 57.1378L40.4858 50.1395L38.6225 48.8152L35.3063 53.4807L32.8268 51.7183L35.6842 47.6983L33.8209 46.3739L30.9635 50.3939L28.7628 48.8296L31.9852 44.2962L30.1219 42.9718L25.2415 49.838L35.5115 57.1378Z" fill="#C2C2C2"/>
<path d="M41.0805 49.4972L46.8862 43.3437L45.1711 41.7255L41.3294 45.7973L33.8798 38.7686L31.9158 40.8503L41.0805 49.4972Z" fill="#C2C2C2"/>
<path d="M52.5026 30.8673C50.2348 27.9337 46.7515 27.0772 43.8036 29.356C40.8557 31.6349 40.8072 35.2215 43.0751 38.1552C45.3429 41.0888 48.8261 41.9453 51.774 39.6665C54.7219 37.3876 54.7704 33.801 52.5026 30.8673ZM45.3679 36.3828C43.8156 34.3748 43.7867 32.395 45.2678 31.2501C46.7488 30.1051 48.6575 30.6318 50.2098 32.6397C51.762 34.6477 51.7909 36.6275 50.3098 37.7724C48.8288 38.9174 46.9201 38.3907 45.3679 36.3828Z" fill="#C2C2C2"/>
<path d="M57.293 35.2973L59.754 34.0216L56.043 26.8622L64.1647 31.7353L66.6417 30.4514L60.8432 19.2649L58.3822 20.5406L62.0932 27.6999L53.9715 22.8268L51.4945 24.1108L57.293 35.2973Z" fill="#C2C2C2"/>
<path d="M65.754 23.9486C66.9194 27.7333 70.1832 29.4027 73.7098 28.3168C75.8601 27.6546 77.3262 26.2991 77.9862 24.5892L76.5559 19.9444L71.5155 21.4965L72.1246 23.4748L74.5503 22.7279L75.0588 24.3794C74.7969 25.1192 74.0202 25.7162 73.0397 26.0182C71.2161 26.5797 69.3182 25.6762 68.5236 23.0958C67.729 20.5154 68.7556 18.7114 70.4243 18.1975C71.7145 17.8002 72.7839 18.0925 73.7038 18.9392L75.6475 17.1165C74.0472 15.6506 71.9561 15.2209 69.6165 15.9413C66.2276 16.9849 64.5939 20.1812 65.754 23.9486Z" fill="#C2C2C2"/>
<path d="M83.995 25.7151L92.5555 25.0534L92.3793 22.7742L86.6723 23.2153L86.4379 20.1823L91.3552 19.8022L91.179 17.523L86.2617 17.9031L86.0536 15.2112L91.5991 14.7825L91.4229 12.5033L83.0239 13.1526L83.995 25.7151Z" fill="#C2C2C2"/>
<path d="M97.9466 15.049L99.5793 15.1815C101.589 15.3446 102.811 16.7441 102.597 19.3814C102.383 22.0188 100.951 23.2027 98.9414 23.0396L97.3087 22.9071L97.9466 15.049ZM105.486 19.6159C105.787 15.9021 103.645 13.1458 99.8777 12.8399L95.2848 12.4671L94.2653 25.0258L98.8582 25.3986C102.626 25.7045 105.183 23.3476 105.486 19.6159Z" fill="#C2C2C2"/>
<path d="M110.67 27.5947C113.842 28.4156 116.353 27.1877 117.228 23.8071L119.109 16.5405L116.338 15.8234L114.439 23.1597C113.975 24.9546 112.925 25.7055 111.27 25.2771C109.614 24.8487 109.061 23.6828 109.525 21.8879L111.424 14.5516L108.653 13.8346L106.773 21.1011C105.898 24.4817 107.568 26.792 110.67 27.5947Z" fill="#C2C2C2"/>
<path d="M119.323 23.277C117.693 26.8663 118.874 30.2296 122.218 31.7478C124.381 32.7301 126.581 32.5431 128.291 31.303L126.611 29.2553C125.551 29.9797 124.437 30.1261 123.306 29.6126C121.602 28.8386 120.846 26.9336 121.962 24.4752C123.078 22.0168 125.01 21.3323 126.715 22.1063C127.845 22.6198 128.468 23.5551 128.621 24.8302L131.268 24.7472C131.077 22.6439 129.769 20.8642 127.606 19.8818C124.263 18.3636 120.953 19.6877 119.323 23.277Z" fill="#C2C2C2"/>
<path d="M140.335 27.5035L137.378 25.5138L126.7 33.5153L129.238 35.2237L131.358 33.5254L135.166 36.088L134.406 38.7007L136.944 40.4091L140.335 27.5035ZM137.349 28.7487L135.849 33.8144L133.221 32.0458L137.349 28.7487Z" fill="#C2C2C2"/>
<path d="M138.561 42.1652L140.671 44.0988L147.59 36.5478L150.271 39.0043L151.864 37.2659L144.393 30.4192L142.799 32.1577L145.48 34.6142L138.561 42.1652Z" fill="#C2C2C2"/>
<path d="M155.722 51.9351C158.631 49.6354 159.449 46.1429 157.138 43.2202C154.828 40.2974 151.241 40.2881 148.332 42.5879C145.423 44.8876 144.605 48.3801 146.916 51.3028C149.227 54.2256 152.814 54.2349 155.722 51.9351ZM150.129 44.8611C152.12 43.287 154.099 43.2365 155.261 44.705C156.422 46.1734 155.916 48.0877 153.925 49.6619C151.934 51.236 149.955 51.2865 148.794 49.818C147.633 48.3496 148.138 46.4353 150.129 44.8611Z" fill="#C2C2C2"/>
<path d="M163.492 61.0668C165.802 59.8145 166.008 57.5122 164.516 54.7587L162.328 50.7234L151.251 56.7277L152.615 59.2439L156.84 56.9536L157.672 58.4886L154.751 63.1842L156.226 65.9061L159.264 60.5945C160.491 61.6493 161.957 61.8988 163.492 61.0668ZM162.128 58.5507C161.115 59.0996 160.305 58.6996 159.619 57.4336L158.787 55.8986L161.746 54.2946L162.578 55.8296C163.264 57.0956 163.141 58.0017 162.128 58.5507Z" fill="#C2C2C2"/>
<path d="M158.092 70.6679L158.83 73.4331L164.099 72.0266L165.348 76.7048L160.078 78.1113L160.816 80.8765L172.99 77.627L172.252 74.8618L167.626 76.0966L166.377 71.4184L171.003 70.1836L170.265 67.4184L158.092 70.6679Z" fill="#C2C2C2"/>
<path d="M168.312 93.3687C172.008 93.0687 174.626 90.6168 174.325 86.903C174.023 83.1892 171.044 81.1917 167.348 81.4918C163.652 81.7918 161.034 84.2436 161.336 87.9574C161.637 91.6712 164.617 93.6687 168.312 93.3687ZM167.583 84.3803C170.112 84.1749 171.787 85.2308 171.939 87.0967C172.09 88.9626 170.608 90.2748 168.078 90.4802C165.548 90.6855 163.873 89.6296 163.722 87.7637C163.57 85.8979 165.053 84.5856 167.583 84.3803Z" fill="#C2C2C2"/>
</svg>
